# xmcd
#
# Track frame offsets:
#	150
#	15094
#	33159
#	52549
#	67518
#	82772
#	100242
#	115474
#	132208
#	147693
#	167025
#	180543
#
# Disc length: 2598 seconds
# Revision: 0
# Processed by: cddbd v1.5.2PL0 Copyright (c) Steve Scherf et al.
# Submitted via: dBpowerAMP V12.0
#
DISCID=860a240c
DTITLE=Mel Gibson - From Mel in Nashville: Tried, True and New
DYEAR=2013
DGENRE=Country
TTITLE0=Alone With You 
TTITLE1=Down A Lonely Road
TTITLE2=Until It's Time For You To Go
TTITLE3=I Refuse To Get The Blues
TTITLE4=If I Were You
TTITLE5=Just The Mention Of Your Name 
TTITLE6=Three Days
TTITLE7=Your Love And Other Illusions
TTITLE8=What Did I Promise Her Last Night
TTITLE9=I'm Glad You're Here With Me Tonight
TTITLE10=Early Mornin' Rain
TTITLE11=Shake A Hand
EXTD=
EXTT0=
EXTT1=
EXTT2=
EXTT3=
EXTT4=
EXTT5=
EXTT6=
EXTT7=
EXTT8=
EXTT9=
EXTT10=
EXTT11=
PLAYORDER=
